<svg width="72" height="75" viewBox="0 0 72 75" fill="none" xmlns="http://www.w3.org/2000/svg">
<path d="M54.3732 74H23.6268C22.7283 74 22 73.1046 22 72C22 70.8954 22.7283 70 23.6268 70H54.3732C55.2717 70 56 70.8954 56 72C56 73.1046 55.2717 74 54.3732 74Z" fill="#F7DBB3"/>
<path d="M39.0014 6C24.0881 6 12 18.0761 12 32.9745C12 44.0327 18.6548 53.5293 28.1841 57.6935L27.9872 50.5594C22.1284 46.8927 18.2351 40.3948 18.2351 32.9745C18.2351 21.5202 27.5328 12.2318 38.9986 12.2318C50.4643 12.2318 59.762 21.5202 59.762 32.9745C59.762 40.5626 55.6805 47.1963 49.5988 50.8168L49.0923 58C59.0036 54.0036 66 44.3103 66 32.9774C66.0029 18.0761 53.9148 6 39.0014 6Z" fill="#04764E"/>
<path d="M38.4784 23.1707C38.4367 22.4459 37.769 21.903 37.0238 22.0146C36.3681 22.1173 35.9299 22.7335 35.9657 23.3791L36.3293 29.9081C36.3502 30.2632 36.073 30.5654 35.7093 30.586L34.5469 30.6476C34.1862 30.6682 33.8792 30.3953 33.8583 30.0373L33.4977 23.5082C33.4619 22.8655 32.9552 22.3021 32.3024 22.2669C31.5424 22.2317 30.9462 22.8479 30.988 23.5757L31.3516 30.1722C31.3725 30.5214 31.0953 30.8295 30.7316 30.8501L29.5691 30.9117C29.2085 30.9322 28.9015 30.6593 28.8806 30.3013L28.52 23.7723C28.4842 23.1296 27.9775 22.5604 27.3247 22.531C26.5676 22.4958 25.9685 23.112 26.0013 23.8398L26.5169 33.136C26.6153 34.9025 27.581 36.5135 29.1131 37.4437C30.1146 38.0599 30.7346 39.1369 30.7614 40.2989L31.3665 61.9167C31.4142 63.158 34.8747 63.2812 36.5082 62.5476C36.2369 61.9167 36.1386 61.233 36.222 60.5405V60.52L36.228 60.5053L36.848 55.5872L35.5692 40.0377C35.4649 38.8816 35.9597 37.7489 36.8927 37.03C38.234 35.9971 39 34.4213 39 32.7545C39 32.6577 39 32.555 38.994 32.4611L38.4873 23.1648L38.4784 23.1707Z" fill="#04764E"/>
<path d="M51.9991 41.3632L51.3908 30.2945C51.158 26.0424 47.8954 22.5752 43.6579 22.0031C43.4687 21.9772 43.2941 22.1181 43.2737 22.3078L41.3704 41.6507L39.0042 60.4819C38.8209 62.0833 44.6882 62.6468 44.8192 61.0397L46.0532 43.7092L49.1993 44.0111C50.7564 44.1606 52.0806 42.9042 51.9962 41.3632H51.9991Z" fill="#04764E"/>
</svg>
